<svg xmlns="http://www.w3.org/2000/svg" xmlns:xlink="http://www.w3.org/1999/xlink" xmlns:serif="http://www.serif.com/" width="100%" height="100%" viewBox="0 0 679 845" xml:space="preserve" style="fill-rule:evenodd;clip-rule:evenodd;stroke-linejoin:round;stroke-miterlimit:2;">    <g transform="matrix(1,0,0,1,2254.86,-739.603)">        <g transform="matrix(1.94335,0,0,1.94335,-2248.77,739.603)">            <g transform="matrix(1,0,0,1,212.77,285.284)">                <path d="M0,-222.873C-0.016,-234.621 -8.912,-242.968 -21.236,-242.801C-36.856,-242.589 -52.131,-227.269 -51.908,-212.038C-51.737,-200.348 -42.696,-191.442 -30.854,-191.298C-15.011,-191.106 0.022,-206.49 0,-222.873M-11.523,-169.351C-34.073,-169.351 -55.163,-169.454 -76.247,-169.159C-77.955,-169.135 -80.702,-166.653 -81.133,-164.871C-83.24,-156.142 -84.726,-147.262 -86.564,-137.745C-78.395,-136.93 -71.954,-136.288 -64.566,-135.551C-67.799,-120.225 -70.931,-106.167 -73.706,-92.038C-77.856,-70.907 -82.364,-49.818 -85.572,-28.539C-88.128,-11.588 -80.685,0.91 -66.106,2.867C-55.61,4.276 -44.158,3.399 -33.913,0.64C-20.259,-3.039 -16.1,-13.106 -19.261,-27.696C-38.852,-23.257 -41.698,-26.186 -37.457,-46.563C-34.216,-62.132 -30.9,-77.686 -27.612,-93.244C-22.369,-118.06 -17.12,-142.875 -11.523,-169.351M-41.308,62.437C-137.533,62.399 -215.101,-15.656 -215.032,-112.382C-214.966,-207.767 -136.675,-285.347 -40.548,-285.284C55.025,-285.222 132.676,-207.08 132.577,-111.061C132.479,-15.29 54.542,62.474 -41.308,62.437" style="fill:rgb(35,31,32);fill-rule:nonzero;"></path>            </g>        </g>        <g transform="matrix(1,0,0,1,2.38912,30.3216)">            <path d="M-1578.34,1457.71C-1578.34,1449.49 -1585.02,1442.81 -1593.24,1442.81L-2242.34,1442.81C-2250.57,1442.81 -2257.25,1449.49 -2257.25,1457.71C-2257.25,1465.94 -2250.57,1472.62 -2242.34,1472.62L-1593.24,1472.62C-1585.02,1472.62 -1578.34,1465.94 -1578.34,1457.71Z"></path>        </g>        <g transform="matrix(1,0,0,1,2.38912,71.1497)">            <path d="M-1578.34,1457.71C-1578.34,1449.49 -1585.02,1442.81 -1593.24,1442.81L-2242.34,1442.81C-2250.57,1442.81 -2257.25,1449.49 -2257.25,1457.71C-2257.25,1465.94 -2250.57,1472.62 -2242.34,1472.62L-1593.24,1472.62C-1585.02,1472.62 -1578.34,1465.94 -1578.34,1457.71Z"></path>        </g>        <g transform="matrix(1,0,0,1,2.38912,111.978)">            <path d="M-1578.34,1457.71C-1578.34,1449.49 -1585.02,1442.81 -1593.24,1442.81L-2242.34,1442.81C-2250.57,1442.81 -2257.25,1449.49 -2257.25,1457.71C-2257.25,1465.94 -2250.57,1472.62 -2242.34,1472.62L-1593.24,1472.62C-1585.02,1472.62 -1578.34,1465.94 -1578.34,1457.71Z"></path>        </g>    </g></svg>